<?xml version="1.0" encoding="UTF-8" standalone="no"?>
<!-- Uploaded to: SVG Repo, www.svgrepo.com, Generator: SVG Repo Mixer Tools -->

<svg
   width="800"
   height="850"
   viewBox="0 0 512 544"
   version="1.1"
   id="svg1"
   xmlns="http://www.w3.org/2000/svg"
   xmlns:svg="http://www.w3.org/2000/svg">
  <defs
     id="defs1" />
  <path
     d="m 215.93828,318.48032 v 20.345 h -88.906 c 15.994,38.807 51.225,65.43 88.906,74.28 v 32.97 h 58.562 c -12.118,30.528 -33.505,55.684 -58.47,77.594 h -25.465 v 18.686 h 284.34 v -18.685 h -27.406 c -28.734,-21.895 -50.055,-47.018 -61.625,-77.595 h 63.658 v -29.188 c 19.748,-6.995 39.5,-19.51 59.25,-36.687 -19.812,-17.523 -39.23,-27.25 -59.25,-31.938 v -29.78 h -233.593 z"
     class="anvil" />
  <path
     d="m 329.5502,174.31746 -35.09167,0.32822 -6.92068,57.74451 -194.984631,1.80633 0.299285,30.57506 194.995666,-1.83642 7.95651,57.51957 54.07332,-0.4966 8.73126,-72.98951 -29.05813,-72.65078 z"
     class="hammer" />
</svg>